<svg width="82" height="82" viewBox="0 0 82 82" fill="none" xmlns="http://www.w3.org/2000/svg">
<path d="M74.2744 7.72656C63.9706 -2.57725 47.2059 -2.57709 36.9021 7.72672C29.8641 14.7648 27.4194 25.1367 30.4669 34.5466L0.706328 64.3074C0.255809 64.7579 0.00244141 65.3677 0.00244141 66.006V79.5965C0.00244141 80.9244 1.07693 81.9988 2.40479 81.9988H15.9953C16.6334 81.9988 17.2434 81.7455 17.6938 81.295L21.0909 77.8955C21.6093 77.3771 21.8626 76.6498 21.7782 75.9201L21.3559 72.2697L26.414 71.7934C27.5636 71.6854 28.4715 70.7775 28.5794 69.6279L29.0557 64.5698L32.7062 64.9944C33.3841 65.0859 34.0669 64.8583 34.5807 64.4033C35.092 63.9459 35.3853 63.2936 35.3853 62.6086V58.1356H39.7771C40.4151 58.1356 41.0252 57.8822 41.4755 57.4317L47.6363 51.3525C57.0438 54.4023 67.2364 52.1419 74.2744 45.099C84.5782 34.7954 84.5782 18.0304 74.2744 7.72656ZM67.4782 24.7143C64.6676 27.5249 60.0975 27.5249 57.287 24.7143C54.4764 21.9037 54.4764 17.3337 57.287 14.5231C60.0975 11.7125 64.6676 11.7125 67.4782 14.5231C70.2888 17.3337 70.2886 21.9037 67.4782 24.7143Z" fill="white"/>
</svg>